<mxfile host="Electron" modified="2023-07-19T10:30:37.448Z" agent="Mozilla/5.0 (Windows NT 10.0; Win64; x64) AppleWebKit/537.36 (KHTML, like Gecko) draw.io/21.6.1 Chrome/112.0.5615.204 Electron/24.6.1 Safari/537.36" etag="jT9Gej_hPB56KCo6SlsT" version="21.6.1" type="device">
  <diagram name="Page-1" id="HczYbfdQyJhawM9cD-nA">
    <mxGraphModel dx="1418" dy="828" grid="1" gridSize="10" guides="1" tooltips="1" connect="1" arrows="1" fold="1" page="1" pageScale="1" pageWidth="827" pageHeight="1169" math="0" shadow="0">
      <root>
        <mxCell id="0" />
        <mxCell id="1" parent="0" />
        <mxCell id="Eea6S4hzGm5I5zmDBsWW-1" value="&lt;h1&gt;Exo Boucles 6&lt;/h1&gt;" style="text;html=1;strokeColor=none;fillColor=none;spacing=5;spacingTop=-20;whiteSpace=wrap;overflow=hidden;rounded=0;" vertex="1" parent="1">
          <mxGeometry x="310" y="10" width="190" height="50" as="geometry" />
        </mxCell>
        <mxCell id="Eea6S4hzGm5I5zmDBsWW-2" value="" style="ellipse;html=1;shape=startState;fillColor=#000000;strokeColor=#ff0000;" vertex="1" parent="1">
          <mxGeometry x="110" y="120" width="30" height="30" as="geometry" />
        </mxCell>
        <mxCell id="Eea6S4hzGm5I5zmDBsWW-3" value="" style="edgeStyle=orthogonalEdgeStyle;html=1;verticalAlign=bottom;endArrow=open;endSize=8;strokeColor=#ff0000;rounded=0;" edge="1" source="Eea6S4hzGm5I5zmDBsWW-2" parent="1">
          <mxGeometry relative="1" as="geometry">
            <mxPoint x="125" y="210" as="targetPoint" />
          </mxGeometry>
        </mxCell>
        <mxCell id="Eea6S4hzGm5I5zmDBsWW-6" value="i = 0" style="rounded=1;whiteSpace=wrap;html=1;arcSize=40;fontColor=#000000;fillColor=#ffffc0;strokeColor=#ff0000;" vertex="1" parent="1">
          <mxGeometry x="65" y="210" width="120" height="40" as="geometry" />
        </mxCell>
        <mxCell id="Eea6S4hzGm5I5zmDBsWW-7" value="" style="edgeStyle=orthogonalEdgeStyle;html=1;verticalAlign=bottom;endArrow=open;endSize=8;strokeColor=#ff0000;rounded=0;" edge="1" source="Eea6S4hzGm5I5zmDBsWW-6" parent="1" target="Eea6S4hzGm5I5zmDBsWW-8">
          <mxGeometry relative="1" as="geometry">
            <mxPoint x="125" y="310" as="targetPoint" />
          </mxGeometry>
        </mxCell>
        <mxCell id="Eea6S4hzGm5I5zmDBsWW-10" style="edgeStyle=orthogonalEdgeStyle;rounded=0;orthogonalLoop=1;jettySize=auto;html=1;" edge="1" parent="1" source="Eea6S4hzGm5I5zmDBsWW-8" target="Eea6S4hzGm5I5zmDBsWW-11">
          <mxGeometry relative="1" as="geometry">
            <mxPoint x="125" y="490" as="targetPoint" />
          </mxGeometry>
        </mxCell>
        <mxCell id="Eea6S4hzGm5I5zmDBsWW-37" value="yes" style="edgeLabel;html=1;align=center;verticalAlign=middle;resizable=0;points=[];" vertex="1" connectable="0" parent="Eea6S4hzGm5I5zmDBsWW-10">
          <mxGeometry x="-0.3" y="1" relative="1" as="geometry">
            <mxPoint as="offset" />
          </mxGeometry>
        </mxCell>
        <mxCell id="Eea6S4hzGm5I5zmDBsWW-20" style="edgeStyle=orthogonalEdgeStyle;rounded=0;orthogonalLoop=1;jettySize=auto;html=1;" edge="1" parent="1" source="Eea6S4hzGm5I5zmDBsWW-8" target="Eea6S4hzGm5I5zmDBsWW-34">
          <mxGeometry relative="1" as="geometry">
            <mxPoint x="280" y="375" as="targetPoint" />
          </mxGeometry>
        </mxCell>
        <mxCell id="Eea6S4hzGm5I5zmDBsWW-36" value="no" style="edgeLabel;html=1;align=center;verticalAlign=middle;resizable=0;points=[];" vertex="1" connectable="0" parent="Eea6S4hzGm5I5zmDBsWW-20">
          <mxGeometry x="0.05" relative="1" as="geometry">
            <mxPoint as="offset" />
          </mxGeometry>
        </mxCell>
        <mxCell id="Eea6S4hzGm5I5zmDBsWW-8" value="i &amp;lt; 20" style="rhombus;whiteSpace=wrap;html=1;fontColor=#000000;fillColor=#ffffc0;strokeColor=#ff0000;" vertex="1" parent="1">
          <mxGeometry x="70" y="340" width="110" height="70" as="geometry" />
        </mxCell>
        <mxCell id="Eea6S4hzGm5I5zmDBsWW-30" style="edgeStyle=orthogonalEdgeStyle;rounded=0;orthogonalLoop=1;jettySize=auto;html=1;" edge="1" parent="1" source="Eea6S4hzGm5I5zmDBsWW-11" target="Eea6S4hzGm5I5zmDBsWW-31">
          <mxGeometry relative="1" as="geometry">
            <mxPoint x="125" y="560" as="targetPoint" />
          </mxGeometry>
        </mxCell>
        <mxCell id="Eea6S4hzGm5I5zmDBsWW-11" value="Saisir un nombre" style="rounded=1;whiteSpace=wrap;html=1;arcSize=40;fontColor=#000000;fillColor=#ffffc0;strokeColor=#ff0000;" vertex="1" parent="1">
          <mxGeometry x="65" y="470" width="120" height="40" as="geometry" />
        </mxCell>
        <mxCell id="Eea6S4hzGm5I5zmDBsWW-14" style="edgeStyle=orthogonalEdgeStyle;rounded=0;orthogonalLoop=1;jettySize=auto;html=1;" edge="1" parent="1" source="Eea6S4hzGm5I5zmDBsWW-13" target="Eea6S4hzGm5I5zmDBsWW-15">
          <mxGeometry relative="1" as="geometry">
            <mxPoint x="320" y="650" as="targetPoint" />
          </mxGeometry>
        </mxCell>
        <mxCell id="Eea6S4hzGm5I5zmDBsWW-16" value="Yes" style="edgeLabel;html=1;align=center;verticalAlign=middle;resizable=0;points=[];" vertex="1" connectable="0" parent="Eea6S4hzGm5I5zmDBsWW-14">
          <mxGeometry x="0.08" y="-3" relative="1" as="geometry">
            <mxPoint as="offset" />
          </mxGeometry>
        </mxCell>
        <mxCell id="Eea6S4hzGm5I5zmDBsWW-13" value="plusGrand &amp;lt; tabNombre[j]" style="rhombus;whiteSpace=wrap;html=1;fontColor=#000000;fillColor=#ffffc0;strokeColor=#ff0000;" vertex="1" parent="1">
          <mxGeometry x="255" y="600" width="130" height="80" as="geometry" />
        </mxCell>
        <mxCell id="Eea6S4hzGm5I5zmDBsWW-15" value="plusGrand = tabNombre[j]" style="rounded=1;whiteSpace=wrap;html=1;arcSize=40;fontColor=#000000;fillColor=#ffffc0;strokeColor=#ff0000;" vertex="1" parent="1">
          <mxGeometry x="260" y="790" width="120" height="40" as="geometry" />
        </mxCell>
        <mxCell id="Eea6S4hzGm5I5zmDBsWW-24" style="edgeStyle=orthogonalEdgeStyle;rounded=0;orthogonalLoop=1;jettySize=auto;html=1;" edge="1" parent="1" target="Eea6S4hzGm5I5zmDBsWW-25">
          <mxGeometry relative="1" as="geometry">
            <mxPoint x="760" y="370" as="targetPoint" />
            <mxPoint x="630" y="370" as="sourcePoint" />
          </mxGeometry>
        </mxCell>
        <mxCell id="Eea6S4hzGm5I5zmDBsWW-25" value="" style="ellipse;html=1;shape=endState;fillColor=#000000;strokeColor=#ff0000;" vertex="1" parent="1">
          <mxGeometry x="745" y="355" width="30" height="30" as="geometry" />
        </mxCell>
        <mxCell id="Eea6S4hzGm5I5zmDBsWW-32" style="edgeStyle=orthogonalEdgeStyle;rounded=0;orthogonalLoop=1;jettySize=auto;html=1;" edge="1" parent="1" source="Eea6S4hzGm5I5zmDBsWW-31">
          <mxGeometry relative="1" as="geometry">
            <mxPoint x="40" y="280" as="targetPoint" />
          </mxGeometry>
        </mxCell>
        <mxCell id="Eea6S4hzGm5I5zmDBsWW-31" value="tabNombre[i] = nombre" style="rounded=1;whiteSpace=wrap;html=1;arcSize=40;fontColor=#000000;fillColor=#ffffc0;strokeColor=#ff0000;" vertex="1" parent="1">
          <mxGeometry x="65" y="540" width="120" height="40" as="geometry" />
        </mxCell>
        <mxCell id="Eea6S4hzGm5I5zmDBsWW-33" value="" style="endArrow=open;endFill=1;endSize=12;html=1;rounded=0;" edge="1" parent="1">
          <mxGeometry width="160" relative="1" as="geometry">
            <mxPoint x="40" y="280" as="sourcePoint" />
            <mxPoint x="130" y="280" as="targetPoint" />
          </mxGeometry>
        </mxCell>
        <mxCell id="Eea6S4hzGm5I5zmDBsWW-35" style="edgeStyle=orthogonalEdgeStyle;rounded=0;orthogonalLoop=1;jettySize=auto;html=1;" edge="1" parent="1" source="Eea6S4hzGm5I5zmDBsWW-34">
          <mxGeometry relative="1" as="geometry">
            <mxPoint x="320" y="500" as="targetPoint" />
          </mxGeometry>
        </mxCell>
        <mxCell id="Eea6S4hzGm5I5zmDBsWW-34" value="j = 0" style="rounded=1;whiteSpace=wrap;html=1;arcSize=40;fontColor=#000000;fillColor=#ffffc0;strokeColor=#ff0000;" vertex="1" parent="1">
          <mxGeometry x="260" y="355" width="120" height="40" as="geometry" />
        </mxCell>
        <mxCell id="Eea6S4hzGm5I5zmDBsWW-40" value="j&amp;lt;20" style="rhombus;whiteSpace=wrap;html=1;fontColor=#000000;fillColor=#ffffc0;strokeColor=#ff0000;" vertex="1" parent="1">
          <mxGeometry x="260" y="500" width="120" height="40" as="geometry" />
        </mxCell>
        <mxCell id="Eea6S4hzGm5I5zmDBsWW-41" value="no" style="edgeStyle=orthogonalEdgeStyle;html=1;align=left;verticalAlign=bottom;endArrow=open;endSize=8;strokeColor=#ff0000;rounded=0;" edge="1" parent="1">
          <mxGeometry x="-1" relative="1" as="geometry">
            <mxPoint x="460" y="520" as="targetPoint" />
            <mxPoint x="380" y="520" as="sourcePoint" />
          </mxGeometry>
        </mxCell>
        <mxCell id="Eea6S4hzGm5I5zmDBsWW-42" value="yes" style="edgeStyle=orthogonalEdgeStyle;html=1;align=left;verticalAlign=top;endArrow=open;endSize=8;strokeColor=#ff0000;rounded=0;" edge="1" source="Eea6S4hzGm5I5zmDBsWW-40" parent="1">
          <mxGeometry x="-1" relative="1" as="geometry">
            <mxPoint x="320" y="600" as="targetPoint" />
          </mxGeometry>
        </mxCell>
      </root>
    </mxGraphModel>
  </diagram>
</mxfile>
